<?xml version="1.0" encoding="utf-8"?>
<!-- Generator: Adobe Illustrator 16.0.0, SVG Export Plug-In . SVG Version: 6.00 Build 0)  -->
<!DOCTYPE svg PUBLIC "-//W3C//DTD SVG 1.1//EN" "http://www.w3.org/Graphics/SVG/1.1/DTD/svg11.dtd">
<svg version="1.1" id="Layer_1" xmlns="http://www.w3.org/2000/svg" xmlns:xlink="http://www.w3.org/1999/xlink" x="0px" y="0px"
	 width="30.3px" height="22.7px" viewBox="0 0 30.3 22.7" enable-background="new 0 0 30.3 22.7" xml:space="preserve">
<g display="none">
	<path display="inline" d="M29.5,17.3v-6.1c0-0.5-0.4-0.9-0.9-0.9h-8.4c-0.8-1.3-2-2.3-3.5-2.8c0.4-0.2,0.7-0.6,0.7-1.1
		c0-0.7-0.6-1.3-1.3-1.3h-0.4V3.5h3.9c0.7,0,1.3-0.6,1.3-1.3c0-0.7-0.6-1.3-1.3-1.3h-3.9c0-0.5-0.3-0.9-0.9-0.9
		c-0.6,0-0.9,0.4-0.9,0.9H10c-0.7,0-1.3,0.6-1.3,1.3c0,0.7,0.6,1.3,1.3,1.3h3.9v1.7h-0.4c-0.7,0-1.3,0.6-1.3,1.3
		c0,0.5,0.3,1,0.8,1.2c-1.1,0.4-2,1-2.7,1.8H3.5V6.9c0-1-0.8-1.7-1.7-1.7C0.8,5.2,0,6,0,6.9v13c0,1,0.8,1.7,1.7,1.7
		c1,0,1.7-0.8,1.7-1.7v-3.5h5.9c1,2,3.1,3.3,5.5,3.3c3,0,5.6-2.2,6.1-5.1h2.4c0.5,0,0.9,0.4,0.9,0.9v1.7c-0.5,0-0.9,0.4-0.9,0.9v1.7
		c0,0.5,0.4,0.9,0.9,0.9h5.2c0.5,0,0.9-0.4,0.9-0.9v-1.7C30.3,17.7,29.9,17.3,29.5,17.3L29.5,17.3z M29.5,17.3"/>
</g>
<g display="none">
	<g display="inline">
		<defs>
			<rect id="SVGID_1_" x="5.1" width="20.8" height="22.7"/>
		</defs>
		<clipPath id="SVGID_2_">
			<use xlink:href="#SVGID_1_"  overflow="visible"/>
		</clipPath>
		<path clip-path="url(#SVGID_2_)" d="M24.6,12l-4.1,1.1l-1.6-0.9v-1.7l1.6-0.9l4.1,1.1c0.1,0,0.2,0,0.3,0c0.4,0,0.8-0.3,0.9-0.7
			c0.1-0.5-0.2-1-0.7-1.2l-2.3-0.6L25,7c0.5-0.3,0.6-0.9,0.4-1.3c-0.3-0.5-0.9-0.6-1.3-0.4l-2.1,1.2l0.6-2.3c0.1-0.5-0.2-1-0.7-1.2
			c-0.5-0.1-1,0.2-1.2,0.7l-1.1,4.1L18,8.8l-1.5-0.9V6.1l3-3c0.4-0.4,0.4-1,0-1.4c-0.4-0.4-1-0.4-1.4,0l-1.7,1.7V1c0-0.5-0.4-1-1-1
			c-0.5,0-1,0.4-1,1v2.4l-1.7-1.7c-0.4-0.4-1-0.4-1.4,0s-0.4,1,0,1.4l3,3v1.8L13,8.8l-1.6-0.9l-1.1-4.1C10.2,3.3,9.7,3,9.2,3.1
			C8.7,3.2,8.4,3.8,8.5,4.3l0.6,2.3L7,5.3C6.5,5.1,5.9,5.2,5.7,5.7C5.4,6.2,5.6,6.7,6,7l2.1,1.2L5.9,8.8C5.3,9,5,9.5,5.2,10
			c0.1,0.4,0.5,0.7,0.9,0.7c0.1,0,0.2,0,0.2,0l4.1-1.1l1.6,0.9l0,1.7l-1.6,0.9L6.4,12c-0.5-0.1-1,0.2-1.2,0.7
			c-0.1,0.5,0.2,1,0.7,1.2l2.3,0.6L6,15.7C5.6,16,5.4,16.5,5.7,17c0.2,0.3,0.5,0.5,0.8,0.5c0.2,0,0.3,0,0.5-0.1l2.1-1.2l-0.6,2.3
			c-0.1,0.5,0.2,1,0.7,1.2c0.1,0,0.2,0,0.3,0c0.4,0,0.8-0.3,0.9-0.7l1.1-4.1l1.6-0.9l1.5,0.9v1.9l-3,3c-0.4,0.4-0.4,1,0,1.4
			c0.2,0.2,0.4,0.3,0.7,0.3c0.2,0,0.5-0.1,0.7-0.3l1.7-1.7v2.4c0,0.5,0.4,1,1,1c0.5,0,1-0.4,1-1v-2.4l1.7,1.7
			c0.2,0.2,0.4,0.3,0.7,0.3s0.5-0.1,0.7-0.3c0.4-0.4,0.4-1,0-1.4l-3-3v-1.8l1.5-0.9l1.6,0.9l1.1,4.1c0.1,0.4,0.5,0.7,0.9,0.7
			c0.1,0,0.2,0,0.3,0c0.5-0.1,0.8-0.7,0.7-1.2l-0.6-2.3l2.1,1.2c0.2,0.1,0.3,0.1,0.5,0.1c0.3,0,0.7-0.2,0.8-0.5
			c0.3-0.5,0.1-1.1-0.4-1.3l-2.1-1.2l2.3-0.6c0.5-0.1,0.8-0.7,0.7-1.2C25.7,12.2,25.2,11.9,24.6,12L24.6,12z M17,12.2l-1.5,0.9
			L14,12.2l0-1.7l1.5-0.9l1.5,0.9V12.2z M17,12.2"/>
	</g>
</g>
<g display="none">
	<path display="inline" d="M26.4,17.3l0.1-8.5c0-0.5-0.4-0.8-0.8-0.8h-5.8l-2.7,0c0,0,0.6-0.6,0.6-1.1c0-0.7-0.6-1.3-1.3-1.3h-0.4
		V3.9H20c0.7,0,1.3-0.6,1.3-1.3c0-0.7-0.6-1.3-1.3-1.3h-3.8c0-0.5-0.3-0.8-0.8-0.8c-0.6,0-0.8,0.4-0.8,0.8h-3.8
		c-0.7,0-1.3,0.6-1.3,1.3c0,0.7,0.6,1.3,1.3,1.3h3.8v1.7h-0.4c-0.7,0-1.3,0.6-1.3,1.3c0,0.5,0.3,1.2,0.8,1.1C13,8.1,6.4,8,6.4,8V7.2
		c0-0.9-0.7-1.7-1.7-1.7c-0.9,0-1.7,0.7-1.7,1.7v12.5c0,0.9,0.7,1.7,1.7,1.7c0.9,0,1.7-0.7,1.7-1.7v-2.5h3.4l10.3,0h1.2
		c-0.5,0-0.8,0.4-0.8,0.8v1.7c0,0.5,0.4,0.8,0.8,0.8h5.1c0.5,0,0.8-0.4,0.8-0.8v-1.7C27.2,17.6,26.9,17.3,26.4,17.3L26.4,17.3z
		 M26.4,17.3"/>
</g>
<g>
	<g>
		<defs>
			<rect id="SVGID_3_" x="2.3" y="0.5" width="24.8" height="21.7"/>
		</defs>
		<clipPath id="SVGID_4_">
			<use xlink:href="#SVGID_3_"  overflow="visible"/>
		</clipPath>
		<path clip-path="url(#SVGID_4_)" d="M26.7,0.5l-17.9,5C8.5,5.7,8.5,5.9,8.8,6.1l3.9,2.6C13,8.9,13,9.1,12.6,9.3L3,13.2
			c-0.3,0.1-0.3,0.3,0,0.4l8.5,2.1c0.3,0.1,0.4,0.3,0.1,0.5l-9.2,5.3c-0.3,0.2-0.1,0.8,0.2,0.7l20.5-4.8c0.3-0.1,0.4-0.3,0.1-0.5
			l-4.9-3.7c-0.3-0.2-0.3-0.5,0.1-0.7l8-3.6c0.3-0.1,0.3-0.4,0-0.5l-6.2-1.9C20,6.3,19.9,6,20.2,5.8L26.9,1
			C27.2,0.8,27.1,0.4,26.7,0.5L26.7,0.5z M23.2,2.5"/>
	</g>
	<path d="M24.1,11.9c-1.1,0-2,0.6-2.3,1.5c0,0.1-0.1,0.4,0.1,0.6c0.1,0.2,0.3,0.3,0.6,0.3h3c0.4,0,0.6-0.2,0.7-0.3
		c0.1-0.2,0.2-0.4,0.1-0.7C26,12.4,25.2,11.9,24.1,11.9L24.1,11.9z M25.5,13.5h-2.7c-0.2,0-0.1-0.1-0.1-0.1c0.2-0.4,0.8-0.7,1.4-0.7
		c0.7,0,1.2,0.3,1.4,0.7C25.5,13.4,25.6,13.5,25.5,13.5L25.5,13.5z M25.5,13.5"/>
	<path d="M5.2,9.8h3c0.4,0,0.6-0.2,0.7-0.3C9.1,9.3,9.1,9.1,9,8.8C8.7,8,7.9,7.4,6.8,7.4c-1.1,0-2,0.6-2.3,1.5
		c0,0.1-0.1,0.4,0.1,0.6C4.7,9.8,4.9,9.8,5.2,9.8L5.2,9.8z M5.4,8.9c0.2-0.4,0.8-0.7,1.4-0.7c0.6,0,1.2,0.2,1.4,0.7
		c0,0.1,0.1,0.2-0.1,0.2H5.5C5.3,9.1,5.3,8.9,5.4,8.9L5.4,8.9z M5.4,8.9"/>
</g>
</svg>
