<?xml version="1.0" encoding="utf-8"?>
<!-- Generator: Adobe Illustrator 16.0.0, SVG Export Plug-In . SVG Version: 6.00 Build 0)  -->
<!DOCTYPE svg PUBLIC "-//W3C//DTD SVG 1.1//EN" "http://www.w3.org/Graphics/SVG/1.1/DTD/svg11.dtd">
<svg version="1.1" id="Layer_1" xmlns="http://www.w3.org/2000/svg" xmlns:xlink="http://www.w3.org/1999/xlink" x="0px" y="0px"
	 width="30.3px" height="22.7px" viewBox="0 0 30.3 22.7" enable-background="new 0 0 30.3 22.7" xml:space="preserve">
<g display="none">
	<path display="inline" d="M29.5,17.3v-6.1c0-0.5-0.4-0.9-0.9-0.9h-8.4c-0.8-1.3-2-2.3-3.5-2.8c0.4-0.2,0.7-0.6,0.7-1.1
		c0-0.7-0.6-1.3-1.3-1.3h-0.4V3.5h3.9c0.7,0,1.3-0.6,1.3-1.3c0-0.7-0.6-1.3-1.3-1.3h-3.9c0-0.5-0.3-0.9-0.9-0.9
		c-0.6,0-0.9,0.4-0.9,0.9H10c-0.7,0-1.3,0.6-1.3,1.3c0,0.7,0.6,1.3,1.3,1.3h3.9v1.7h-0.4c-0.7,0-1.3,0.6-1.3,1.3
		c0,0.5,0.3,1,0.8,1.2c-1.1,0.4-2,1-2.7,1.8H3.5V6.9c0-1-0.8-1.7-1.7-1.7C0.8,5.2,0,6,0,6.9v13c0,1,0.8,1.7,1.7,1.7
		c1,0,1.7-0.8,1.7-1.7v-3.5h5.9c1,2,3.1,3.3,5.5,3.3c3,0,5.6-2.2,6.1-5.1h2.4c0.5,0,0.9,0.4,0.9,0.9v1.7c-0.5,0-0.9,0.4-0.9,0.9v1.7
		c0,0.5,0.4,0.9,0.9,0.9h5.2c0.5,0,0.9-0.4,0.9-0.9v-1.7C30.3,17.7,29.9,17.3,29.5,17.3L29.5,17.3z M29.5,17.3"/>
</g>
<g>
	<g>
		<defs>
			<rect id="SVGID_1_" x="5.1" width="20.8" height="22.7"/>
		</defs>
		<clipPath id="SVGID_2_">
			<use xlink:href="#SVGID_1_"  overflow="visible"/>
		</clipPath>
		<path clip-path="url(#SVGID_2_)" d="M24.6,12l-4.1,1.1l-1.6-0.9v-1.7l1.6-0.9l4.1,1.1c0.1,0,0.2,0,0.3,0c0.4,0,0.8-0.3,0.9-0.7
			c0.1-0.5-0.2-1-0.7-1.2l-2.3-0.6L25,7c0.5-0.3,0.6-0.9,0.4-1.3c-0.3-0.5-0.9-0.6-1.3-0.4l-2.1,1.2l0.6-2.3c0.1-0.5-0.2-1-0.7-1.2
			c-0.5-0.1-1,0.2-1.2,0.7l-1.1,4.1L18,8.8l-1.5-0.9V6.1l3-3c0.4-0.4,0.4-1,0-1.4c-0.4-0.4-1-0.4-1.4,0l-1.7,1.7V1c0-0.5-0.4-1-1-1
			c-0.5,0-1,0.4-1,1v2.4l-1.7-1.7c-0.4-0.4-1-0.4-1.4,0s-0.4,1,0,1.4l3,3v1.8L13,8.8l-1.6-0.9l-1.1-4.1C10.2,3.3,9.7,3,9.2,3.1
			C8.7,3.2,8.4,3.8,8.5,4.3l0.6,2.3L7,5.3C6.5,5.1,5.9,5.2,5.7,5.7C5.4,6.2,5.6,6.7,6,7l2.1,1.2L5.9,8.8C5.3,9,5,9.5,5.2,10
			c0.1,0.4,0.5,0.7,0.9,0.7c0.1,0,0.2,0,0.2,0l4.1-1.1l1.6,0.9l0,1.7l-1.6,0.9L6.4,12c-0.5-0.1-1,0.2-1.2,0.7
			c-0.1,0.5,0.2,1,0.7,1.2l2.3,0.6L6,15.7C5.6,16,5.4,16.5,5.7,17c0.2,0.3,0.5,0.5,0.8,0.5c0.2,0,0.3,0,0.5-0.1l2.1-1.2l-0.6,2.3
			c-0.1,0.5,0.2,1,0.7,1.2c0.1,0,0.2,0,0.3,0c0.4,0,0.8-0.3,0.9-0.7l1.1-4.1l1.6-0.9l1.5,0.9v1.9l-3,3c-0.4,0.4-0.4,1,0,1.4
			c0.2,0.2,0.4,0.3,0.7,0.3c0.2,0,0.5-0.1,0.7-0.3l1.7-1.7v2.4c0,0.5,0.4,1,1,1c0.5,0,1-0.4,1-1v-2.4l1.7,1.7
			c0.2,0.2,0.4,0.3,0.7,0.3s0.5-0.1,0.7-0.3c0.4-0.4,0.4-1,0-1.4l-3-3v-1.8l1.5-0.9l1.6,0.9l1.1,4.1c0.1,0.4,0.5,0.7,0.9,0.7
			c0.1,0,0.2,0,0.3,0c0.5-0.1,0.8-0.7,0.7-1.2l-0.6-2.3l2.1,1.2c0.2,0.1,0.3,0.1,0.5,0.1c0.3,0,0.7-0.2,0.8-0.5
			c0.3-0.5,0.1-1.1-0.4-1.3l-2.1-1.2l2.3-0.6c0.5-0.1,0.8-0.7,0.7-1.2C25.7,12.2,25.2,11.9,24.6,12L24.6,12z M17,12.2l-1.5,0.9
			L14,12.2l0-1.7l1.5-0.9l1.5,0.9V12.2z M17,12.2"/>
	</g>
</g>
</svg>
